<svg width="0" height="0" class="visually-hidden">
  <defs>
    <symbol id="close" viewBox="0 0 30 30" fill="none" xmlns="http://www.w3.org/2000/svg">
      <g clip-path="url(#clip0_1212_695)">
        <path d="M23.8105 23.7966C23.1034 24.5037 22.3727 24.8572 21.6185 24.8572C20.8406 24.8337 20.0982 24.4683 19.3911 23.7612L14.6535 19.0236L10.0219 23.6551C9.33837 24.3387 8.63126 24.6922 7.90059 24.7158C7.19348 24.7158 6.49816 24.374 5.81462 23.6905C5.13108 23.007 4.78932 22.3116 4.78932 21.6045C4.81289 20.8739 5.16644 20.1668 5.84998 19.4832L10.4815 14.8517L5.92069 10.2908C5.21358 9.58372 4.86003 8.85305 4.86003 8.0988C4.86003 7.34455 5.22537 6.60209 5.95604 5.87141C6.66315 5.16431 7.38204 4.82254 8.11272 4.84611C8.86697 4.84611 9.59764 5.19966 10.3047 5.90677L14.8656 10.4676L19.4971 5.83606C20.1807 5.15252 20.876 4.81075 21.5831 4.81075C22.3138 4.78718 23.0209 5.11717 23.7044 5.8007C24.388 6.48424 24.7179 7.19135 24.6944 7.92202C24.6944 8.62913 24.3526 9.32445 23.6691 10.008L19.0375 14.6395L23.7751 19.3772C24.4822 20.0843 24.8476 20.8267 24.8711 21.6045C24.8947 22.3352 24.5412 23.0659 23.8105 23.7966Z" fill="white"/>
      </g>
      <defs>
        <clipPath id="clip0_1212_695">
          <rect width="30" height="30" fill="white"/>
        </clipPath>
      </defs>
    </symbol>
    <symbol id="arrow-left" viewBox="0 0 30 31" fill="none" xmlns="http://www.w3.org/2000/svg">
      <g clip-path="url(#clip0_1212_207)">
        <path d="M9.89163 15.1269C10.504 14.3429 11.279 13.5808 11.928 13.486C12.577 13.3911 13.0009 13.611 13.9045 14.4853C14.3981 14.963 19.7615 20.3242 20.0189 20.7672C20.2763 21.2103 20.3413 21.6527 20.066 22.1274C19.7999 22.586 19.0221 23.5108 18.2614 23.8769C17.6698 24.1617 17.1805 24.2551 16.2864 23.4524C15.5808 22.819 10.2615 17.5047 9.74533 16.5701C9.46178 16.0571 9.56904 15.54 9.89163 15.1269Z" fill="white"/>
        <path d="M10.8134 17.6039C10.03 16.9911 9.26844 16.2155 9.17365 15.566C9.07887 14.9165 9.29862 14.4924 10.1722 13.5882C10.6496 13.0942 16.407 7.32654 16.8497 7.06917C17.2925 6.81159 17.7346 6.74654 18.209 7.02204C18.6672 7.28828 19.5913 8.06665 19.9572 8.82791C20.2417 9.41999 20.3351 9.90957 19.5329 10.8043C18.8501 11.566 13.1615 17.2492 12.2555 17.7505C11.7427 18.0341 11.2259 17.9267 10.8134 17.6039Z" fill="white"/>
      </g>
      <defs>
        <clipPath id="clip0_1212_207">
          <rect width="11.25" height="17.5" fill="white" transform="matrix(-1 0 0 1 20.3831 6.66187)"/>
        </clipPath>
      </defs>
    </symbol>
    <symbol id="person" viewBox="0 0 30 30" fill="none" xmlns="http://www.w3.org/2000/svg">
      <path d="M15 15C17.7627 15 20 12.7625 20 10C20 7.23755 17.7627 5 15 5C12.2375 5 10 7.23755 10 10C10 12.7625 12.2375 15 15 15ZM15 17.5C6.66675 17.5 6.66675 19.175 6.66675 22.5C6.66675 23.8806 7.78613 25 9.16675 25L20.8335 25C22.2141 25 23.3335 23.8806 23.3335 22.5C23.3335 19.175 23.3335 17.5 15 17.5Z" fill="#FFFFFF" fill-opacity="1.000000" fill-rule="nonzero"/>
    </symbol>
    <symbol id="logo" viewBox="0 0 166 30" fill="none" xmlns="http://www.w3.org/2000/svg">
      <defs>
        <clipPath id="clip75_49012">
          <rect id="logoipsum-325 1" width="166.000000" height="30.000000" fill="white" fill-opacity="0"/>
        </clipPath>
      </defs>
      <rect id="logoipsum-325 1" width="166.000000" height="30.000000" fill="#FFFFFF" fill-opacity="0"/>
      <g clip-path="url(#clip75_49012)">
        <path id="Vector" d="M15.0908 30C23.4255 30 30.1819 23.2844 30.1819 15L30.1819 4.5C30.1819 3.30664 29.7048 2.16187 28.8557 1.31812C28.0068 0.474121 26.8552 0 25.6545 0L15.8455 0L15.8455 6.58057C15.8455 8.08203 15.9375 9.63745 16.7297 10.9155C17.2969 11.8313 18.0557 12.6152 18.9546 13.2141C19.8533 13.8127 20.8713 14.2124 21.9392 14.3857L22.228 14.4321C22.3472 14.4727 22.4507 14.5493 22.5239 14.6511C22.5972 14.7529 22.6365 14.8748 22.6365 15C22.6365 15.1252 22.5972 15.2471 22.5239 15.3489C22.4507 15.4507 22.3472 15.5273 22.228 15.5679L21.9392 15.6143C20.3789 15.8677 18.938 16.6016 17.8201 17.7129C16.7021 18.824 15.9636 20.2561 15.7087 21.8069L15.6621 22.0942C15.6213 22.2126 15.5444 22.3154 15.4419 22.3882C15.3396 22.4609 15.2168 22.5002 15.0908 22.5002C14.9648 22.5002 14.8423 22.4609 14.7397 22.3882C14.6375 22.3154 14.5603 22.2126 14.5198 22.0942L14.4729 21.8069C14.2986 20.7456 13.8965 19.7339 13.2942 18.8403C12.6917 17.947 11.9031 17.1929 10.9817 16.6289C9.6958 15.8416 8.13086 15.75 6.62036 15.75L0.0180664 15.75C0.412598 23.6858 7.00977 30 15.0908 30Z" fill="#FFFFFF" fill-opacity="1.000000" fill-rule="nonzero"/>
        <path id="Vector" d="M0 14.25L6.62036 14.25C8.1311 14.25 9.6958 14.1584 10.9817 13.3711C11.9868 12.7554 12.8328 11.9146 13.4521 10.9155C14.2444 9.63745 14.3364 8.08203 14.3364 6.58057L14.3364 0L4.52734 0C3.32666 0 2.17505 0.474121 1.32593 1.31812C0.477051 2.16187 0 3.30664 0 4.5L0 14.25ZM35.0525 1.5C35.0525 1.89771 34.8933 2.2793 34.6104 2.56055C34.3274 2.84204 33.9436 3 33.5432 3C33.1431 3 32.7593 2.84204 32.4763 2.56055C32.1931 2.2793 32.0342 1.89771 32.0342 1.5C32.0342 1.10229 32.1931 0.720703 32.4763 0.439453C32.7593 0.157959 33.1431 0 33.5432 0C33.9436 0 34.3274 0.157959 34.6104 0.439453C34.8933 0.720703 35.0525 1.10229 35.0525 1.5ZM159.746 9.07788C163.964 9.07788 166 12.0068 166 15.3989L166 21.7703L161.585 21.7703L161.585 16.155C161.585 14.6174 161.021 13.3484 159.402 13.3484C157.784 13.3484 157.244 14.6174 157.244 16.155L157.244 21.7695L152.829 21.7695L152.829 16.155C152.829 14.6174 152.29 13.3484 150.671 13.3484C149.052 13.3484 148.488 14.6174 148.488 16.155L148.488 21.7695L144.074 21.7695L144.074 15.3982C144.074 12.0061 146.109 9.07715 150.327 9.07715C152.633 9.07715 154.301 9.98022 155.061 11.469C155.87 9.98022 157.637 9.07642 159.746 9.07642L159.746 9.07788ZM136.14 17.865C137.563 17.865 138.176 16.5713 138.176 15.033L138.176 9.56543L142.59 9.56543L142.59 15.5701C142.59 19.158 140.481 22.1362 136.14 22.1362C131.799 22.1362 129.69 19.1587 129.69 15.5701L129.69 9.56543L134.104 9.56543L134.104 15.033C134.104 16.5706 134.717 17.865 136.14 17.865ZM123.198 22.1602C120.427 22.1602 118.636 21.2085 117.582 19.3538L120.77 17.5718C121.212 18.3525 121.874 18.7432 122.977 18.7432C123.885 18.7432 124.302 18.426 124.302 18.0352C124.302 16.5464 117.827 18.0601 117.827 13.3252C117.827 11.0303 119.789 9.17554 123.125 9.17554C126.043 9.17554 127.637 10.5908 128.349 11.958L125.16 13.7639C124.891 13.032 124.056 12.5925 123.223 12.5925C122.585 12.5925 122.242 12.8611 122.242 13.2271C122.242 14.7405 128.716 13.3494 128.716 17.9377C128.716 20.5005 126.19 22.1602 123.198 22.1602ZM107.774 27.384L103.359 27.384L103.359 15.6436C103.359 11.9084 106.18 9.19946 110.104 9.19946C113.93 9.19946 116.849 12.1042 116.849 15.6436C116.849 19.5488 114.249 22.1362 110.349 22.1362C109.442 22.1362 108.535 21.8677 107.774 21.4521L107.774 27.384ZM110.104 18.0112C111.502 18.0112 112.434 16.9373 112.434 15.6675C112.434 14.3745 111.502 13.3245 110.104 13.3245C108.706 13.3245 107.774 14.3745 107.774 15.6682C107.774 16.9373 108.706 18.0112 110.104 18.0112ZM98.9368 8.27246C97.4895 8.27246 96.2883 7.07617 96.2883 5.63623C96.2883 4.19629 97.4895 3 98.9368 3C100.384 3 101.586 4.19629 101.586 5.63623C101.586 7.07617 100.384 8.27246 98.9368 8.27246ZM96.7297 9.56543L101.145 9.56543L101.145 21.7703L96.7297 21.7703L96.7297 9.56543ZM88.2593 22.1362C84.4329 22.1362 81.5144 19.2075 81.5144 15.6436C81.5144 12.1042 84.4329 9.17554 88.2593 9.17554C92.0854 9.17554 95.0042 12.1042 95.0042 15.6436C95.0042 19.2075 92.0854 22.1362 88.2593 22.1362ZM88.2593 18.0112C89.6572 18.0112 90.5891 16.9373 90.5891 15.6675C90.5891 14.3745 89.6572 13.3005 88.2593 13.3005C86.8611 13.3005 85.9292 14.3745 85.9292 15.6675C85.9292 16.9373 86.8611 18.0112 88.2593 18.0112ZM73.178 27.75C70.1372 27.75 67.9294 26.4075 66.8015 24.0149L70.4556 22.0627C70.8481 22.8931 71.5837 23.7473 73.1042 23.7473C74.6992 23.7473 75.7534 22.7461 75.8762 20.9888C75.2878 21.5017 74.3552 21.8918 72.9578 21.8918C69.5479 21.8918 66.8008 19.2803 66.8008 15.6187C66.8008 12.0803 69.72 9.19946 73.5464 9.19946C77.4707 9.19946 80.2913 11.9092 80.2913 15.6436L80.2913 20.4766C80.2913 24.8701 77.2246 27.75 73.178 27.75ZM73.4724 17.7676C74.7966 17.7676 75.8025 16.8638 75.8025 15.5212C75.8025 14.2036 74.7974 13.3245 73.4724 13.3245C72.1724 13.3245 71.1423 14.2036 71.1423 15.522C71.1423 16.8645 72.1724 17.7668 73.4724 17.7668L73.4724 17.7676ZM59.3125 22.1362C55.4863 22.1362 52.5669 19.2075 52.5669 15.6436C52.5669 12.1042 55.4863 9.17554 59.3125 9.17554C63.1382 9.17554 66.0574 12.1042 66.0574 15.6436C66.0574 19.2075 63.1389 22.1362 59.3125 22.1362ZM59.3125 18.0112C60.7107 18.0112 61.6426 16.9373 61.6426 15.6675C61.6426 14.3745 60.7107 13.3005 59.3125 13.3005C57.9143 13.3005 56.9824 14.3745 56.9824 15.6675C56.9824 16.9373 57.9143 18.0112 59.3125 18.0112ZM44.5281 5.29492L44.5281 17.6206L51.8372 17.6206L51.8372 21.7703L43.9146 21.7703C41.1189 21.7703 39.991 20.3054 39.991 17.9866L39.991 5.29492L44.5281 5.29492Z" fill="currentColor" fill-opacity="1.000000" fill-rule="nonzero"/>
      </g>
    </symbol>
    <symbol id="home" viewBox="0 0 14 14" fill="none" xmlns="http://www.w3.org/2000/svg">
      <path d="M13.7541 5.43718L12.0024 3.94662V1.56279C12.0024 1.29435 11.7932 1.07593 11.5361 1.07593H10.4338C10.1767 1.07593 9.96752 1.29435 9.96752 1.56279V2.21506L7.62687 0.223383C7.45755 0.0793591 7.23439 0 6.99852 0C6.76357 0 6.54148 0.0788722 6.37309 0.222144L0.245883 5.43714C-0.0325128 5.67398 -0.0158099 5.88027 0.01891 5.98216C0.0535452 6.08383 0.165082 6.25441 0.52271 6.25441H1.36171V13.1124C1.36171 13.6019 1.74206 14 2.20958 14H4.85915C5.32272 14 5.68581 13.6101 5.68581 13.1124V10.3001C5.68581 10.059 5.89799 9.83956 6.13094 9.83956H7.91145C8.13351 9.83956 8.31419 10.0462 8.31419 10.3001V13.1124C8.31419 13.5936 8.71217 14 9.18325 14H11.7904C12.2579 14 12.6383 13.6018 12.6383 13.1124V6.25441H13.4773C13.8349 6.25441 13.9464 6.08383 13.9811 5.98216C14.0158 5.88027 14.0325 5.67398 13.7541 5.43718Z" fill="currentColor"/>
    </symbol>
    <symbol id="eye" viewBox="0 0 23 24" fill="none" xmlns="http://www.w3.org/2000/svg">
      <defs>
        <clipPath id="clip17_374">
          <rect id="Icons" width="23.000000" height="24.000000" fill="white" fill-opacity="0"/>
        </clipPath>
      </defs>
      <g clip-path="url(#clip17_374)">
        <path id="Vector" d="M11.4558 5.34131C7.62964 5.34131 3.40771 6.41333 1.66943 10.7712C1.47681 11.2563 1.47168 12.2063 1.67017 12.7202C3.35938 17.0962 7.62964 18.1414 11.4558 18.1414C15.282 18.1414 19.6511 17.0681 21.312 12.7173C21.5078 12.2048 21.501 11.2698 21.312 10.7825C19.6301 6.44434 15.282 5.34131 11.4558 5.34131ZM11.7302 16.248C9.19043 16.4194 7.09302 14.1748 7.25293 11.447C7.38403 9.198 9.08398 7.375 11.1814 7.23462C13.7212 7.06323 15.8186 9.30786 15.6589 12.0356C15.5237 14.2803 13.8237 16.103 11.7302 16.248ZM11.6033 14.166C10.2351 14.2583 9.10449 13.0503 9.19458 11.5833C9.26416 10.3708 10.1819 9.39136 11.3125 9.31226C12.6807 9.21997 13.8113 10.428 13.7212 11.895C13.6475 13.1118 12.73 14.0913 11.6033 14.166Z" fill="#767679" fill-opacity="1.000000" fill-rule="nonzero"/>
      </g>
    </symbol>
    <symbol id="calendar" viewBox="0 0 16 16" fill="none" xmlns="http://www.w3.org/2000/svg">
      <path id="Vector" d="M12.2217 2.27441L12.2217 0.738525C12.2217 0.334717 11.9194 0 11.5549 0C11.1904 0 10.8882 0.334717 10.8882 0.738525L10.8882 2.21533L5.1106 2.21533L5.1106 0.738525C5.1106 0.334717 4.80835 0 4.44385 0C4.07935 0 3.7771 0.334717 3.7771 0.738525L3.7771 2.27441C1.3772 2.52075 0.212646 4.10596 0.0349121 6.45923C0.0170898 6.74487 0.230469 6.9812 0.479492 6.9812L15.5193 6.9812C15.7771 6.9812 15.9905 6.73486 15.9639 6.45923C15.7861 4.10596 14.6216 2.52075 12.2217 2.27441Z" fill="#767679" fill-opacity="1.000000" fill-rule="evenodd"/>
      <path id="Vector" d="M15.1111 5.50391L0.888916 5.50391C0.399902 5.50391 0 5.94702 0 6.48853L0 11.0769C0 14.0308 1.33325 16.0002 4.44434 16.0002L11.5557 16.0002C14.6667 16.0002 16 14.0308 16 11.0769L16 6.48853C16 5.94702 15.6001 5.50391 15.1111 5.50391ZM5.52002 12.2683C5.47559 12.3079 5.43115 12.3569 5.38672 12.3865C5.33325 12.4258 5.28003 12.4553 5.22656 12.4751C5.17334 12.5046 5.12012 12.5244 5.06665 12.5342C5.00439 12.5439 4.95117 12.554 4.88892 12.554C4.77344 12.554 4.65771 12.5244 4.55103 12.4751C4.43555 12.4258 4.34668 12.3569 4.25781 12.2683C4.09766 12.0813 4 11.8252 4 11.5693C4 11.3132 4.09766 11.0571 4.25781 10.8701C4.34668 10.7815 4.43555 10.7126 4.55103 10.6633C4.71118 10.5847 4.88892 10.5649 5.06665 10.6042C5.12012 10.6143 5.17334 10.6338 5.22656 10.6633C5.28003 10.6831 5.33325 10.7126 5.38672 10.752C5.43115 10.7915 5.47559 10.8308 5.52002 10.8701C5.67993 11.0571 5.77783 11.3132 5.77783 11.5693C5.77783 11.8252 5.67993 12.0813 5.52002 12.2683ZM5.52002 8.82202C5.35107 8.99927 5.12012 9.10767 4.88892 9.10767C4.65771 9.10767 4.42676 8.99927 4.25781 8.82202C4.09766 8.63501 4 8.37891 4 8.12305C4 7.86694 4.09766 7.61108 4.25781 7.42383C4.50659 7.14819 4.89771 7.05957 5.22656 7.21704C5.34229 7.26636 5.43994 7.33521 5.52002 7.42383C5.67993 7.61108 5.77783 7.86694 5.77783 8.12305C5.77783 8.37891 5.67993 8.63501 5.52002 8.82202ZM8.6311 12.2683C8.46216 12.4456 8.2312 12.554 8 12.554C7.7688 12.554 7.53784 12.4456 7.3689 12.2683C7.20898 12.0813 7.11108 11.8252 7.11108 11.5693C7.11108 11.3132 7.20898 11.0571 7.3689 10.8701C7.69775 10.5059 8.30225 10.5059 8.6311 10.8701C8.79102 11.0571 8.88892 11.3132 8.88892 11.5693C8.88892 11.8252 8.79102 12.0813 8.6311 12.2683ZM8.6311 8.82202C8.58667 8.86157 8.54224 8.90088 8.4978 8.94019C8.44434 8.97974 8.39111 9.00928 8.33789 9.02881C8.28442 9.05835 8.2312 9.07812 8.17773 9.08789C8.11548 9.0979 8.06226 9.10767 8 9.10767C7.7688 9.10767 7.53784 8.99927 7.3689 8.82202C7.20898 8.63501 7.11108 8.37891 7.11108 8.12305C7.11108 7.86694 7.20898 7.61108 7.3689 7.42383C7.44897 7.33521 7.54663 7.26636 7.66211 7.21704C7.99121 7.05957 8.38232 7.14819 8.6311 7.42383C8.79102 7.61108 8.88892 7.86694 8.88892 8.12305C8.88892 8.37891 8.79102 8.63501 8.6311 8.82202ZM11.7422 12.2683C11.5732 12.4456 11.3423 12.554 11.1111 12.554C10.8799 12.554 10.6489 12.4456 10.48 12.2683C10.3201 12.0813 10.2222 11.8252 10.2222 11.5693C10.2222 11.3132 10.3201 11.0571 10.48 10.8701C10.8088 10.5059 11.4133 10.5059 11.7422 10.8701C11.9021 11.0571 12 11.3132 12 11.5693C12 11.8252 11.9021 12.0813 11.7422 12.2683ZM11.7422 8.82202C11.6978 8.86157 11.6533 8.90088 11.6089 8.94019C11.5557 8.97974 11.5022 9.00928 11.449 9.02881C11.3955 9.05835 11.3423 9.07812 11.2888 9.08789C11.2266 9.0979 11.1646 9.10767 11.1111 9.10767C10.8799 9.10767 10.6489 8.99927 10.48 8.82202C10.3201 8.63501 10.2222 8.37891 10.2222 8.12305C10.2222 7.86694 10.3201 7.61108 10.48 7.42383C10.5688 7.33521 10.6577 7.26636 10.7734 7.21704C10.9333 7.13843 11.1111 7.11865 11.2888 7.15796C11.3423 7.16797 11.3955 7.1875 11.449 7.21704C11.5022 7.23682 11.5557 7.26636 11.6089 7.30566C11.6533 7.34521 11.6978 7.38452 11.7422 7.42383C11.9021 7.61108 12 7.86694 12 8.12305C12 8.37891 11.9021 8.63501 11.7422 8.82202Z" fill="#767679" fill-opacity="1.000000" fill-rule="evenodd"/>
    </symbol>
    <symbol id="message" viewBox="0 0 16 13" fill="none" xmlns="http://www.w3.org/2000/svg">
      <path id="Subtract" d="M5.53271 11.106C1.25488 10.6892 0.0698242 10.2063 0.000732422 4.63623C-0.0212402 2.82886 0.411621 1.30908 2.32275 0.705078C5.00659 -0.143066 9.92261 -0.322754 13.8394 0.705322C15.9282 1.25366 16.1641 2.53027 16.1685 5.00562C16.1721 6.99487 15.9265 8.55054 15.1189 9.5647C15.0271 10.0327 15.0271 10.3335 15.0271 10.6545C15.0271 13.6047 13.8987 13.1892 12.5984 12.7102C12.4839 12.668 12.3682 12.6252 12.2517 12.5845C11.595 12.3538 10.6252 11.7156 9.59009 11.1973C8.33398 11.2644 6.97266 11.2463 5.53271 11.106ZM10.801 6.72363C9.91235 6.62842 10.1189 5.61646 10.2043 5.19995C10.304 4.71484 10.7463 4.64209 11.207 4.67725C11.7002 4.7146 11.949 4.78198 12.074 5.0686C12.1738 5.29785 12.2014 5.69971 12.1633 6.10083C12.1143 6.61938 11.6897 6.81909 10.801 6.72363ZM5.49316 6.21631C5.57861 5.7998 5.78516 4.78809 4.89648 4.69263C4.00806 4.59741 3.5835 4.79688 3.53442 5.31543C3.49634 5.7168 3.52368 6.11841 3.62378 6.34766C3.74878 6.63452 3.99731 6.70166 4.49072 6.73926C4.95142 6.77417 5.39355 6.70142 5.49316 6.21631ZM6.90356 6.21631C6.81812 5.7998 6.61157 4.78809 7.50024 4.69263C8.38892 4.59741 8.81348 4.79688 8.86255 5.31543C8.90063 5.7168 8.87305 6.11841 8.77319 6.34766C8.64819 6.63452 8.39941 6.70166 7.90625 6.73926C7.44556 6.77417 7.00317 6.70142 6.90356 6.21631Z" clip-rule="evenodd" fill="#767679" fill-opacity="1.000000" fill-rule="evenodd"/>
    </symbol>
    <symbol id="heart" viewBox="0 0 18 18" fill="none" xmlns="http://www.w3.org/2000/svg">
      <defs>
        <clipPath id="clip17_392">
          <rect id="heart-svgrepo-com 2" width="18.000000" height="18.000000" fill="white" fill-opacity="0"/>
        </clipPath>
      </defs>
      <rect id="heart-svgrepo-com 2" width="18.000000" height="18.000000" fill="#FFFFFF" fill-opacity="0"/>
      <g clip-path="url(#clip17_392)">
        <path id="Vector" d="M9.29248 15.6533C9.20605 15.7117 9.10425 15.7429 9 15.7429C8.89575 15.7429 8.79395 15.7117 8.70752 15.6533C7.323 14.7285 1.5 10.6133 1.5 6.73047C1.5 1.72046 7.38745 0.917969 9 4.29297C10.6125 0.917969 16.5 1.72046 16.5 6.73047C16.5 10.614 10.677 14.7285 9.29248 15.6519L9.29248 15.6533Z" fill="#767679" fill-opacity="1.000000" fill-rule="nonzero"/>
      </g>
    </symbol>

  </defs>
</svg>